<?xml version="1.0" encoding="UTF-8"?><svg id="_レイヤー_2" xmlns="http://www.w3.org/2000/svg" viewBox="0 0 157.21 172.94"><defs><style>.cls-1{fill:#f78e00;}.cls-1,.cls-2,.cls-3,.cls-4,.cls-5,.cls-6{stroke-width:0px;}.cls-2{fill:#df4840;}.cls-3{fill:#3d87c3;}.cls-4{fill:#3d963b;}.cls-5{fill:#fff;}.cls-6{fill:#fdc600;}</style></defs><g id="logo"><g id="symbol"><path class="cls-5" d="M42.18,33.37c-1.83-1.76-16.58-8.52-28.33,11.72-9.14,15.76-5.33,31.39-5.11,32.72-3.86,4.15-7.84,11.37-8.28,12.48,6.23-.03,13.97.34,16.78.56-2.74-5.19-4.09-8.01-5.23-12.35,2.65-3.82,12.82-15.11,19.94-21.5,3.55-3.19,11.47-10.7,10.21-23.62ZM30.23,42.62c-1.1,1.05-2.82,1.11-3.86.13-1.03-.98-.9-2.7.29-3.84,1.19-1.14,2.92-1.2,3.86-.13.94,1.07.8,2.79-.29,3.84Z"/><path class="cls-4" d="M8.75,94.71c-2.44.7-15.67,10.1-4.01,30.39,9.08,15.79,24.52,20.31,25.78,20.78,1.67,5.41,5.93,12.48,6.67,13.41,3.09-5.41,7.28-11.93,8.88-14.26-5.86-.22-8.99-.46-13.31-1.65-1.98-4.2-6.68-18.66-8.65-28.02-.98-4.67-3.53-15.28-15.35-20.66ZM10.79,109.68c.36,1.48-.45,3-1.81,3.4-1.36.4-2.79-.57-3.18-2.17-.39-1.6.42-3.13,1.82-3.41,1.39-.28,2.81.7,3.17,2.17Z"/><path class="cls-6" d="M78.61,102.02c-5.02,0-9.08-4.07-9.08-9.08V9.08c0-5.02,4.07-9.08,9.08-9.08s9.08,4.07,9.08,9.08v83.85c0,5.02-4.07,9.08-9.08,9.08Z"/><path class="cls-1" d="M45.24,154.27c-.61,2.47.91,18.62,24.32,18.67,18.21.04,29.85-11.08,30.89-11.93,5.52,1.26,13.77,1.11,14.94.93-3.14-5.38-6.69-12.27-7.91-14.81-3.12,4.96-4.89,7.55-8.08,10.7-4.63-.39-19.5-3.55-28.59-6.52-4.54-1.48-15-4.58-25.57,2.97ZM59.22,159.99c1.46.43,2.37,1.89,2.04,3.27-.33,1.38-1.88,2.13-3.47,1.67-1.58-.46-2.5-1.93-2.04-3.28.46-1.34,2.01-2.09,3.47-1.66Z"/><path class="cls-2" d="M115.04,152.5c1.83,1.76,16.58,8.52,28.33-11.72,9.14-15.76,5.33-31.39,5.11-32.72,3.86-4.15,7.84-11.37,8.28-12.48-6.23.03-13.97-.34-16.78-.56,2.74,5.19,4.09,8.01,5.23,12.35-2.65,3.82-12.82,15.11-19.94,21.5-3.55,3.19-11.47,10.7-10.21,23.62ZM126.98,143.25c1.1-1.05,2.82-1.11,3.86-.13,1.03.98.9,2.7-.29,3.84-1.19,1.14-2.92,1.2-3.86.13-.94-1.07-.8-2.79.29-3.84Z"/><path class="cls-3" d="M148.46,91.17c2.44-.7,15.67-10.1,4.01-30.39-9.08-15.79-24.52-20.31-25.78-20.78-1.67-5.41-5.93-12.48-6.67-13.41-3.09,5.41-7.28,11.93-8.88,14.26,5.86.22,8.99.46,13.31,1.65,1.98,4.2,6.68,18.66,8.65,28.02.98,4.67,3.53,15.28,15.35,20.66ZM146.42,76.2c-.36-1.48.45-3,1.81-3.4,1.36-.4,2.79.57,3.18,2.17.39,1.6-.42,3.13-1.82,3.41-1.39.28-2.81-.7-3.17-2.17Z"/></g></g></svg>